<?xml version="1.0" encoding="UTF-8" standalone="no"?>
<svg
   xmlns:dc="http://purl.org/dc/elements/1.1/"
   xmlns:cc="http://creativecommons.org/ns#"
   xmlns:rdf="http://www.w3.org/1999/02/22-rdf-syntax-ns#"
   xmlns:svg="http://www.w3.org/2000/svg"
   xmlns="http://www.w3.org/2000/svg"
   xmlns:sodipodi="http://sodipodi.sourceforge.net/DTD/sodipodi-0.dtd"
   xmlns:inkscape="http://www.inkscape.org/namespaces/inkscape"
   width="210mm"
   height="51mm"
   viewBox="0 0 210 51"
   version="1.1"
   id="svg8"
   inkscape:version="1.0 (4035a4fb49, 2020-05-01)"
   sodipodi:docname="drawing-1.svg">
  <defs
     id="defs2" />
  <sodipodi:namedview
     id="base"
     pagecolor="#ffffff"
     bordercolor="#666666"
     borderopacity="1.0"
     inkscape:pageopacity="0.0"
     inkscape:pageshadow="2"
     inkscape:zoom="0.68149426"
     inkscape:cx="-286.23383"
     inkscape:cy="331.19759"
     inkscape:document-units="mm"
     inkscape:current-layer="layer1"
     inkscape:document-rotation="0"
     showgrid="false"
     showguides="true"
     inkscape:guide-bbox="true"
     inkscape:window-width="1920"
     inkscape:window-height="1017"
     inkscape:window-x="-8"
     inkscape:window-y="-8"
     inkscape:window-maximized="1">
    <sodipodi:guide
       position="105,135.45792"
       orientation="-1,0"
       id="guide847"
       inkscape:label=""
       inkscape:locked="false"
       inkscape:color="rgb(0,0,255)" />
    <sodipodi:guide
       position="-108.7072,105"
       orientation="0,1"
       id="guide849"
       inkscape:label=""
       inkscape:locked="false"
       inkscape:color="rgb(0,0,255)" />
  </sodipodi:namedview>
  <metadata
     id="metadata5">
    <rdf:RDF>
      <cc:Work
         rdf:about="">
        <dc:format>image/svg+xml</dc:format>
        <dc:type
           rdf:resource="http://purl.org/dc/dcmitype/StillImage" />
        <dc:title></dc:title>
      </cc:Work>
    </rdf:RDF>
  </metadata>
  <g
     inkscape:label="Layer 1"
     inkscape:groupmode="layer"
     id="layer1">
    <g
       style="fill:#ffffff"
       transform="matrix(0.29285038,0,0,0.29285038,-10.279406,-3.585446)"
       id="g845">
      <g
         style="fill:#ffffff"
         id="layer2"
         inkscape:label="Layer 2" />
      <g
         style="fill:#ffffff"
         inkscape:label="Layer 1"
         id="layer1-0">
        <path
           d="m 170.65502,134.90014 c 7.80911,12.92536 -1.49792,29.42276 -16.59913,29.42325 H 55.944127 c -15.98168,0 -25.104348,-18.24534 -15.515347,-31.03069 l 13.245087,-17.66012 3.650669,2.73801 -13.245087,17.66011 c -7.332769,9.77703 -0.356608,23.72936 11.864678,23.72936 h 10.267509 v -13.69001 h -9.126675 c -1.91387,4.6e-4 -2.977864,-2.2137 -1.781698,-3.70771 l 17.75338,-22.19123 V 105.166 c -4.180945,0.61272 -7.951965,2.84848 -10.495677,6.22267 l -5.23643,6.98192 -3.650669,-2.73801 5.23643,-6.98191 c 3.451931,-4.577 8.651275,-7.51296 14.353406,-8.10505 0.832981,-4.287662 4.039361,-7.724222 8.259072,-8.852022 -1.759451,-2.92129 -2.95366,-6.14747 -3.52033,-9.510283 0.02436,-12.527888 -0.01971,-7.337938 -0.382466,-18.253348 v -2.281665 h -2.281667 c -1.260133,0 -2.281672,-1.021544 -2.281669,-2.281671 C 72.324905,48.1068 77.637871,37.66504 85.604109,30.782454 l 2.285088,3.950141 c -8.105999,7.070947 -9.745416,17.322943 -10.269218,22.352363 h 6.363575 c 9.866754,0.0097 19.531706,-2.794314 27.861456,-8.08281 V 36.944671 c -1.14454,-2.988993 -4.01515,-4.961426 -7.21577,-4.958065 H 98.155 c -3.60369,-0.002 -6.260532,0.07275 -10.265803,2.745989 -1.265229,0.844454 -3.446189,-2.967408 -2.285088,-3.950141 3.120995,-2.641542 8.144879,-3.360883 12.550891,-3.359186 h 6.47424 c 4.67684,-0.004 8.94944,2.65044 11.01789,6.845005 h 0.76121 c 8.81682,0.0099 15.96179,7.154868 15.97169,15.971679 v 13.690015 c -0.0478,8.058744 -0.23927,16.033902 -0.38247,18.253348 -0.56681,3.363793 -1.76151,6.590893 -3.52175,9.512853 4.2147,1.13361 7.41758,4.56593 8.25736,8.848882 5.70335,0.59139 10.90399,3.52764 14.35654,8.10562 l 19.56531,26.24947 -3.90508,2.35953 -19.31091,-25.871 c -2.5437,-3.37419 -6.31473,-5.60995 -10.49566,-6.22267 v 15.00511 l 17.75338,22.19123 c 1.19617,1.49402 0.13216,3.70819 -1.7817,3.70771 h -9.12669 v 13.69001 h 10.26753 c 11.54846,2.1e-4 18.66616,-12.61601 12.69405,-22.50039 z M 132.38003,77.619978 c -94.142417,-94.968321 -47.071207,-47.484162 0,0 z m -6.845,18.25336 H 125.389 c -1.32529,1.47906 -2.80632,2.81079 -4.41732,3.97209 v 0.591242 h 11.01591 c -0.96961,-2.732452 -3.55319,-4.559592 -6.45256,-4.563332 z M 123.25335,105 v 36.5067 h 9.12668 V 105 Z m -6.84501,-55.208962 c 2.28107,5.412352 6.29347,9.914878 11.40834,12.801875 v -4.802627 c 0.009,-5.328832 0,0 0,-7.193531 v -0.356803 c -0.007,-6.297718 -5.11061,-11.401264 -11.40834,-11.40834 z m -34.225018,27.82894 c 0.0055,12.59745 10.219247,22.806762 22.816678,22.806762 12.59743,0 22.81121,-10.209312 22.81668,-22.806762 v -9.907 c -6.34361,-2.933588 -11.51558,-7.916395 -14.68339,-14.146354 -6.30457,3.795099 -21.78295,8.208673 -30.838995,7.859264 -0.07177,5.13882 -0.110965,-2.283191 -0.110973,16.19409 z M 105,105 c -3.93633,0.004 -7.826753,-0.84548 -11.402914,-2.49044 1.093975,5.42951 5.864448,9.33466 11.403064,9.33466 5.53861,0 10.30909,-3.90515 11.40307,-9.33466 C 112.827,104.15467 108.93646,105.00435 105,105 Z m -27.380021,36.5067 h 9.126676 V 105 h -9.126676 z m -4.563336,-6.53127 v -7.49927 L 61.832258,141.5067 h 5.01625 l 0.318862,-0.95601 c 0.90808,-2.72579 3.117857,-4.81776 5.889273,-5.57526 z m 15.971683,13.37628 c -0.0016,-1.25954 -1.022124,-2.28025 -2.281671,-2.28166 H 75.338312 c -1.260133,0 -2.281672,-1.02155 -2.281669,-2.28167 v -3.86088 c -0.732465,0.49929 -1.280601,1.22539 -1.560092,2.06663 l -0.721577,2.16501 v 15.60092 h 15.971681 c 1.259547,-6.5e-4 2.280257,-1.02213 2.281671,-2.28168 z m 0,-48.506282 c -1.611017,-1.1613 -3.092025,-2.49304 -4.417314,-3.97209 h -0.146027 c -10.752745,3.99404 -3.435312,4.563332 4.563341,4.563332 z m 29.661694,9.012602 c -6.35107,10.06994 -21.035298,10.06531 -27.380028,-0.009 v 34.40559 c 1.452091,1.29601 2.282154,3.15006 2.281667,5.0964 v 9.12666 c 3.06e-4,0.77738 -0.132423,1.54908 -0.392447,2.28168 H 116.8008 c -0.26002,-0.7326 -0.39275,-1.5043 -0.39246,-2.28168 v -9.12666 c -4.7e-4,-1.94634 0.82959,-3.80039 2.28168,-5.0964 z m 20.53502,35.30111 -0.72159,-2.16444 c -0.27948,-0.84124 -0.82761,-1.56733 -1.56008,-2.06662 v 3.8603 c 0,1.26014 -1.02154,2.28167 -2.28168,2.28167 h -11.40834 c -1.25954,6.5e-4 -2.28026,1.02212 -2.28167,2.28166 v 9.12667 c 6.6e-4,1.25955 1.02213,2.28027 2.28167,2.28168 h 15.97169 z m 3.92645,-2.65244 h 5.01625 l -11.22437,-14.03054 v 7.49927 c 2.77175,0.75779 4.98159,2.85034 5.88927,5.57669 z"
           id="path833"
           style="fill:#ffffff;fill-opacity:1;stroke-width:0.285209"
           sodipodi:nodetypes="ccssccsscccccccccccccccscccccccccsscccccccccccccccccccccccccccccccccccccccccccscccccccscccccccccccccccssccccccccccccccccccccccccccsscccccccccccc" />
      </g>
    </g>
    <g
       transform="translate(9.5250005)"
       style="font-style:normal;font-variant:normal;font-weight:600;font-stretch:normal;font-size:19.205px;line-height:1.25;font-family:Poppins;-inkscape-font-specification:'Poppins Semi-Bold';letter-spacing:0px;word-spacing:0px;fill:#ffffff;stroke-width:0.450118"
       id="text853"
       aria-label="IZOBRAŽEVALNIK">
      <path
         id="path850"
         style="font-style:normal;font-variant:normal;font-weight:normal;font-stretch:normal;font-size:19.205px;font-family:Poppins;-inkscape-font-specification:Poppins;fill:#ffffff;fill-opacity:1;stroke-width:0.450118"
         d="M 52.752342,19.35776 V 32.743645 H 51.004687 V 19.35776 Z" />
      <path
         id="path852"
         style="font-style:normal;font-variant:normal;font-weight:normal;font-stretch:normal;font-size:19.205px;font-family:Poppins;-inkscape-font-specification:Poppins;fill:#ffffff;fill-opacity:1;stroke-width:0.450118"
         d="m 57.209702,31.22645 h 6.5297 v 1.517195 h -8.60384 v -1.38276 l 6.49129,-10.48593 h -6.41447 V 19.35776 h 8.48861 v 1.38276 z" />
      <path
         id="path854"
         style="font-style:normal;font-variant:normal;font-weight:normal;font-stretch:normal;font-size:19.205px;font-family:Poppins;-inkscape-font-specification:Poppins;fill:#ffffff;fill-opacity:1;stroke-width:0.450118"
         d="m 72.189903,32.87808 q -1.862885,0 -3.399285,-0.864225 -1.5364,-0.88343 -2.439035,-2.439035 -0.88343,-1.57481 -0.88343,-3.53372 0,-1.95891 0.88343,-3.514515 0.902635,-1.57481 2.439035,-2.439035 1.5364,-0.88343 3.399285,-0.88343 1.88209,0 3.41849,0.88343 1.5364,0.864225 2.41983,2.41983 0.88343,1.555605 0.88343,3.53372 0,1.978115 -0.88343,3.53372 -0.88343,1.555605 -2.41983,2.439035 -1.5364,0.864225 -3.41849,0.864225 z m 0,-1.517195 q 1.401965,0 2.515855,-0.65297 1.133095,-0.65297 1.76686,-1.862885 0.65297,-1.209915 0.65297,-2.80393 0,-1.61322 -0.65297,-2.80393 -0.633765,-1.209915 -1.747655,-1.862885 -1.11389,-0.65297 -2.53506,-0.65297 -1.42117,0 -2.53506,0.65297 -1.11389,0.65297 -1.76686,1.862885 -0.633765,1.19071 -0.633765,2.80393 0,1.594015 0.633765,2.80393 0.65297,1.209915 1.76686,1.862885 1.133095,0.65297 2.53506,0.65297 z" />
      <path
         id="path856"
         style="font-style:normal;font-variant:normal;font-weight:normal;font-stretch:normal;font-size:19.205px;font-family:Poppins;-inkscape-font-specification:Poppins;fill:#ffffff;fill-opacity:1;stroke-width:0.450118"
         d="m 87.902594,25.84905 q 0.72979,0.11523 1.325145,0.595355 0.61456,0.480125 0.96025,1.19071 0.364895,0.710585 0.364895,1.517195 0,1.017865 -0.518535,1.84368 -0.518535,0.80661 -1.517195,1.286735 -0.979455,0.46092 -2.323805,0.46092 h -4.9933 V 19.35776 h 4.80125 q 1.363555,0 2.323805,0.46092 0.96025,0.441715 1.440375,1.209915 0.480125,0.7682 0.480125,1.72845 0,1.19071 -0.65297,1.978115 -0.633765,0.7682 -1.69004,1.11389 z m -4.95489,-0.710585 h 2.938365 q 1.22912,0 1.901295,-0.57615 0.672175,-0.57615 0.672175,-1.594015 0,-1.017865 -0.672175,-1.594015 -0.672175,-0.57615 -1.939705,-0.57615 h -2.899955 z m 3.092005,6.164805 q 1.30594,0 2.03573,-0.61456 0.72979,-0.61456 0.72979,-1.709245 0,-1.11389 -0.7682,-1.747655 -0.7682,-0.65297 -2.054935,-0.65297 h -3.03439 v 4.72443 z" />
      <path
         id="path858"
         style="font-style:normal;font-variant:normal;font-weight:normal;font-stretch:normal;font-size:19.205px;font-family:Poppins;-inkscape-font-specification:Poppins;fill:#ffffff;fill-opacity:1;stroke-width:0.450118"
         d="M 100.02635,32.743645 96.838319,27.27022 h -2.11255 v 5.473425 H 92.978114 V 19.35776 h 4.321125 q 1.517195,0 2.554265,0.518535 1.056276,0.518535 1.574806,1.401965 0.51854,0.88343 0.51854,2.016525 0,1.38276 -0.80661,2.439035 -0.78741,1.056275 -2.381421,1.401965 l 3.360871,5.60786 z m -5.300581,-6.87539 h 2.57347 q 1.42117,0 2.131755,-0.69138 0.710586,-0.710585 0.710586,-1.88209 0,-1.19071 -0.710586,-1.84368 -0.69138,-0.65297 -2.131755,-0.65297 h -2.57347 z" />
      <path
         id="path860"
         style="font-style:normal;font-variant:normal;font-weight:normal;font-stretch:normal;font-size:19.205px;font-family:Poppins;-inkscape-font-specification:Poppins;fill:#ffffff;fill-opacity:1;stroke-width:0.450118"
         d="m 112.55611,29.76687 h -5.83832 l -1.07548,2.976775 h -1.84368 l 4.83966,-13.309065 h 2.01653 l 4.82045,13.309065 h -1.84368 z m -0.49933,-1.42117 -2.41983,-6.76016 -2.41983,6.76016 z" />
      <path
         id="path862"
         style="font-style:normal;font-variant:normal;font-weight:normal;font-stretch:normal;font-size:19.205px;font-family:Poppins;-inkscape-font-specification:Poppins;fill:#ffffff;fill-opacity:1;stroke-width:0.450118"
         d="m 119.06331,31.22645 h 6.5297 v 1.517195 h -8.60384 v -1.38276 l 6.49129,-10.48593 h -6.41447 V 19.35776 h 8.48861 v 1.38276 z m 4.89727,-14.307725 -2.65029,1.57481 -2.66949,-1.57481 v -1.38276 l 2.66949,1.632425 2.65029,-1.632425 z" />
      <path
         id="path864"
         style="font-style:normal;font-variant:normal;font-weight:normal;font-stretch:normal;font-size:19.205px;font-family:Poppins;-inkscape-font-specification:Poppins;fill:#ffffff;fill-opacity:1;stroke-width:0.450118"
         d="m 129.72238,20.77893 v 4.474765 h 4.87807 v 1.440375 h -4.87807 v 4.6092 h 5.45422 v 1.440375 h -7.20187 v -13.40509 h 7.20187 v 1.440375 z" />
      <path
         id="path866"
         style="font-style:normal;font-variant:normal;font-weight:normal;font-stretch:normal;font-size:19.205px;font-family:Poppins;-inkscape-font-specification:Poppins;fill:#ffffff;fill-opacity:1;stroke-width:0.450118"
         d="m 148.90187,19.35776 -5.05091,13.385885 h -2.01653 L 136.78352,19.35776 h 1.86288 l 4.2059,11.542205 4.20589,-11.542205 z" />
      <path
         id="path868"
         style="font-style:normal;font-variant:normal;font-weight:normal;font-stretch:normal;font-size:19.205px;font-family:Poppins;-inkscape-font-specification:Poppins;fill:#ffffff;fill-opacity:1;stroke-width:0.450118"
         d="m 158.73064,29.76687 h -5.83832 l -1.07548,2.976775 h -1.84368 l 4.83966,-13.309065 h 2.01652 l 4.82046,13.309065 h -1.84368 z m -0.49933,-1.42117 -2.41983,-6.76016 -2.41983,6.76016 z" />
      <path
         id="path870"
         style="font-style:normal;font-variant:normal;font-weight:normal;font-stretch:normal;font-size:19.205px;font-family:Poppins;-inkscape-font-specification:Poppins;fill:#ffffff;fill-opacity:1;stroke-width:0.450118"
         d="m 165.5067,31.322475 h 4.68602 v 1.42117 h -6.43368 V 19.35776 h 1.74766 z" />
      <path
         id="path872"
         style="font-style:normal;font-variant:normal;font-weight:normal;font-stretch:normal;font-size:19.205px;font-family:Poppins;-inkscape-font-specification:Poppins;fill:#ffffff;fill-opacity:1;stroke-width:0.450118"
         d="m 182.57304,32.743645 h -1.74765 L 173.79636,22.08487 v 10.658775 h -1.74766 v -13.40509 h 1.74766 l 7.02903,10.63957 v -10.63957 h 1.74765 z" />
      <path
         id="path874"
         style="font-style:normal;font-variant:normal;font-weight:normal;font-stretch:normal;font-size:19.205px;font-family:Poppins;-inkscape-font-specification:Poppins;fill:#ffffff;fill-opacity:1;stroke-width:0.450118"
         d="m 187.29987,19.35776 v 13.385885 h -1.74765 V 19.35776 Z" />
      <path
         id="path876"
         style="font-style:normal;font-variant:normal;font-weight:normal;font-stretch:normal;font-size:19.205px;font-family:Poppins;-inkscape-font-specification:Poppins;fill:#ffffff;fill-opacity:1;stroke-width:0.450118"
         d="m 197.53793,32.743645 -5.51183,-6.10719 v 6.10719 h -1.74766 V 19.35776 h 1.74766 v 6.203215 l 5.53104,-6.203215 h 2.20857 l -6.06878,6.702545 6.1264,6.68334 z" />
    </g>
  </g>
</svg>
